<svg xmlns="http://www.w3.org/2000/svg" width="236.736" height="34.8" viewBox="0 0 236.736 34.8">
  <path id="Logo" d="M52.464,47H65.856c8.64,0,12.24-3.936,12.24-8.544,0-4.032-3.024-6.72-9.216-7.872v-.1c5.328-1.344,7.728-4.32,7.728-7.584,0-4.128-3.456-7.632-11.28-7.632H52.464v.72h4.272V46.28H52.464ZM61.44,30.392v-14.4h3.744c3.84,0,6.48,1.968,6.48,7.536,0,5.472-2.688,6.864-6.288,6.864Zm0,15.888V31.112h4.272c4.8,0,7.44,1.968,7.44,7.1,0,5.184-2.5,8.064-7.344,8.064ZM86.88,35.624h13.728V33.7c0-5.952-3.072-8.64-8.5-8.64-5.76,0-9.7,3.024-9.7,11.184,0,7.872,3.84,11.088,9.744,11.088a9.3,9.3,0,0,0,3.456-.576,6.385,6.385,0,0,0,4.512-5.952H99.36c0,3.552-3.312,5.808-6.768,5.808-3.792,0-5.712-2.112-5.712-10.272Zm.048-.72c.144-6.048,1.584-9.216,5.184-9.216,3.408,0,4.32,2.784,4.32,7.3V34.9ZM117.7,43.4a3.86,3.86,0,0,0,4.224,3.936c2.256,0,3.84-1.44,3.84-4.32h-.72c0,1.728-.624,3.312-2.256,3.312-1.008,0-1.3-.768-1.3-2.16V31.64c0-4.176-2.352-6.576-8.16-6.576-5.04,0-7.776,1.776-7.776,4.416,0,1.92,1.488,3.12,3.648,3.12a6.627,6.627,0,0,0,1.872-.288v-.384c-1.584.336-2.256-1.008-2.256-2.592,0-2.544,1.584-3.648,4.512-3.648,3.168,0,3.936,1.536,3.936,4.368V35.1h-.48c-5.808,0-12.384,1.68-12.384,6.864,0,3.984,3.408,5.376,6.48,5.376A7.369,7.369,0,0,0,117.6,43.4Zm-.432-1.44c0,1.1-1.056,2.5-2.4,3.456a5.606,5.606,0,0,1-3.12,1.1c-1.776,0-2.784-1.3-2.784-4.464,0-2.64.864-4.272,2.448-5.184a10.014,10.014,0,0,1,4.992-1.056h.864Zm9.6,5.04h11.424v-.72h-3.84V34.04a11.138,11.138,0,0,1,1.632-5.328c.912-1.488,2.16-2.64,3.5-2.64,1.44,0,2.208,1.248,2.208,3.648,0,1.344-.24,3.072-1.632,2.832v.384a3.465,3.465,0,0,0,1.632.288c1.92,0,3.408-1.44,3.408-3.792a4.285,4.285,0,0,0-4.56-4.368c-3.408,0-5.328,2.928-6.192,5.424h-.1V25.4h-7.488v.72h3.36V46.28h-3.36ZM146.5,47H157.44v-.72h-3.36V12.536H146.5v.72h3.36V46.28H146.5Zm12.912,0h10.944v-.72h-3.36V25.4h-7.584v.72h3.36V46.28h-3.36Zm2.544-29.616a2.592,2.592,0,1,0,2.592-2.592A2.644,2.644,0,0,0,161.952,17.384ZM174,47.336c.288-.864.864-2.112,1.68-2.352a8.663,8.663,0,0,0,6.144,2.352c4.7,0,7.584-2.928,7.584-6.768,0-8.64-13.824-5.232-13.824-10.8,0-2.736,2.592-3.984,5.664-3.984,4.512,0,6.432,2.976,6.432,5.424v.768h.72V29.528a10.29,10.29,0,0,1,.768-4.464h-.624c-.336.72-.72,1.824-1.824,2.064a7.421,7.421,0,0,0-5.424-2.064c-3.264,0-7.584,1.488-7.584,6.432,0,8.976,13.728,5.472,13.728,11.04,0,2.688-2.544,4.08-5.568,4.08-4.464,0-7.248-3.072-7.248-5.568V39.32h-.72v3.552a14.434,14.434,0,0,1-.528,4.464Zm20.4,0c.288-.864.864-2.112,1.68-2.352a8.663,8.663,0,0,0,6.144,2.352c4.7,0,7.584-2.928,7.584-6.768,0-8.64-13.824-5.232-13.824-10.8,0-2.736,2.592-3.984,5.664-3.984,4.512,0,6.432,2.976,6.432,5.424v.768h.72V29.528a10.29,10.29,0,0,1,.768-4.464h-.624c-.336.72-.72,1.824-1.824,2.064a7.421,7.421,0,0,0-5.424-2.064c-3.264,0-7.584,1.488-7.584,6.432,0,8.976,13.728,5.472,13.728,11.04,0,2.688-2.544,4.08-5.568,4.08-4.464,0-7.248-3.072-7.248-5.568V39.32h-.72v3.552a14.434,14.434,0,0,1-.528,4.464ZM213.12,47h10.944v-.72H220.7V25.4H213.12v.72h3.36V46.28h-3.36Zm2.544-29.616a2.592,2.592,0,1,0,2.592-2.592A2.644,2.644,0,0,0,215.664,17.384ZM225.984,47h10.608v-.72h-3.024V34.088c0-2.5,1.728-8.16,7.008-8.16,2.592,0,3.408,1.248,3.408,4.848v15.5H240.96V47h10.272v-.72h-3.024V33.9c.1-2.592,1.824-7.968,7.008-7.968,2.592,0,3.408,1.248,3.408,4.848v15.5H255.6V47h10.608v-.72h-3.36V31.64c0-4.56-2.16-6.576-6.912-6.576a7.754,7.754,0,0,0-7.728,5.376h-.1c-.336-3.7-2.5-5.376-6.816-5.376a7.754,7.754,0,0,0-7.728,5.376h-.1V25.4h-7.488v.72h3.36V46.28h-3.36Zm52.992.336c6.336,0,10.224-4.08,10.224-11.28,0-6.816-3.072-10.992-10.224-10.992-7.1,0-10.272,4.368-10.272,11.28C268.7,43.016,272.064,47.336,278.976,47.336Zm0-.624c-4.368,0-5.76-3.216-5.76-10.368,0-7.488,1.44-10.656,5.76-10.656,4.368,0,5.712,3.072,5.712,10.368C284.688,43.4,283.344,46.712,278.976,46.712Z" transform="translate(-52.464 -12.536)" fill="#dbcba6"/>
</svg>
